<svg aria-hidden="true" style="position: absolute; width: 0; height: 0; overflow: hidden;" version="1.1" xmlns="http://www.w3.org/2000/svg" xmlns:xlink="http://www.w3.org/1999/xlink">
<defs>
<symbol id="icon-Vector-1" viewBox="0 0 136 32">
<path d="M0.146 2.301h8.79c5.604 0 10.234 3.213 10.234 10.55v1.542c0 7.392-4.33 10.717-10.065 10.717h-8.959v-22.808zM5.056 6.443v14.506h3.767c3.186 0 5.323-2.062 5.323-6.649v-1.207c0-4.588-2.249-6.649-5.492-6.649h-3.599zM21.775 6.666h3.936l0.637 4.29c0.75-2.916 2.662-4.476 6.129-4.476h1.218v4.922h-2.024c-3.992 0-4.967 1.374-4.967 5.275v8.488h-4.854v-18.499h-0.075zM34.67 16.287v-0.52c0-6.185 3.992-9.565 9.428-9.565 5.548 0 9.428 3.38 9.428 9.565v0.52c0 6.074-3.767 9.342-9.428 9.342-6.016-0.056-9.428-3.25-9.428-9.342zM48.558 16.231v-0.464c0-3.436-1.743-5.498-4.517-5.498-2.718 0-4.517 1.895-4.517 5.498v0.464c0 3.325 1.743 5.219 4.517 5.219 2.774-0.056 4.517-1.894 4.517-5.219zM56.074 6.666h4.048l0.469 3.492c0.975-2.34 3.055-3.956 6.129-3.956 4.742 0 7.872 3.38 7.872 9.64v0.52c0 6.073-3.467 9.287-7.872 9.287-2.943 0-4.967-1.319-5.96-3.436v9.342h-4.742l0.056-24.889zM69.663 16.231v-0.409c0-3.678-1.912-5.498-4.461-5.498-2.718 0-4.517 2.062-4.517 5.498v0.353c0 3.269 1.743 5.331 4.461 5.331 2.793-0.056 4.517-1.82 4.517-5.275zM81.771 21.747l-0.412 3.38h-4.161v-24.647h4.742v9.454c1.050-2.415 3.13-3.733 6.073-3.733 4.461 0.056 7.76 3.102 7.76 9.231v0.576c0 6.129-3.13 9.64-7.872 9.64-3.13-0.074-5.154-1.504-6.129-3.9zM90.786 16.008v-0.464c0-3.38-1.856-5.275-4.461-5.275-2.662 0-4.517 2.117-4.517 5.331v0.409c0 3.436 1.799 5.442 4.461 5.442 2.849 0 4.517-1.764 4.517-5.442zM97.852 16.287v-0.52c0-6.185 3.992-9.565 9.428-9.565 5.548 0 9.428 3.38 9.428 9.565v0.52c0 6.074-3.824 9.342-9.428 9.342-6.016-0.056-9.428-3.25-9.428-9.342zM111.778 16.231v-0.464c0-3.436-1.743-5.498-4.517-5.498-2.718 0-4.517 1.895-4.517 5.498v0.464c0 3.325 1.743 5.219 4.517 5.219 2.793-0.056 4.517-1.894 4.517-5.219zM123.061 15.544l-6.541-8.878h5.604l3.767 5.553 3.824-5.553h5.548l-6.635 8.822 6.991 9.64h-5.492l-4.273-6.129-4.161 6.129h-5.735l7.104-9.584z"></path>
</symbol>
<symbol id="icon-Vector" viewBox="0 0 39 32">
<path d="M19.024 6.013l-9.512 6.013 9.512 6.013-9.512 6.013-9.512-6.046 9.512-6.013-9.512-5.981 9.512-6.013 9.512 6.013zM9.463 25.987l9.512-6.013 9.512 6.013-9.512 6.013-9.512-6.013zM19.024 18.007l9.512-6.013-9.512-5.981 9.463-6.013 9.512 6.013-9.512 6.013 9.512 6.013-9.512 6.013-9.463-6.046z"></path>
</symbol>
</defs>
</svg>
